<svg xmlns="http://www.w3.org/2000/svg" viewBox="0 0 256 256" role="img" aria-label="Ayush Mishra logo">
  <defs>
    <linearGradient id="amGradient" x1="38" y1="28" x2="220" y2="226" gradientUnits="userSpaceOnUse">
      <stop offset="0" stop-color="#82e8eb"/>
      <stop offset="0.52" stop-color="#33bbcf"/>
      <stop offset="1" stop-color="#7c3aed"/>
    </linearGradient>
    <filter id="glow" x="-20%" y="-20%" width="140%" height="140%">
      <feGaussianBlur stdDeviation="6" result="blur"/>
      <feMerge>
        <feMergeNode in="blur"/>
        <feMergeNode in="SourceGraphic"/>
      </feMerge>
    </filter>
  </defs>
  <rect width="256" height="256" rx="64" fill="#00040f"/>
  <path d="M48 183 94 72h20l46 111h-25l-9-24H82l-9 24H48Zm42-45h28l-14-38-14 38Zm82 45V72h24l27 45 27-45h24v111h-24v-69l-27 44h-2l-26-43v68h-23Z" fill="url(#amGradient)" filter="url(#glow)" transform="translate(-26 0)"/>
  <path d="M36 205c42 20 141 20 184 0" fill="none" stroke="#82e8eb" stroke-width="4" stroke-linecap="round" opacity=".55"/>
</svg>
